<svg id="Capa_1" enable-background="new 0 0 512 512" height="512" viewBox="0 0 512 512" width="512" xmlns="http://www.w3.org/2000/svg"><g><path d="m497 241h-18.508c-3.174-47.906-21.51-93.006-52.662-129.528l12.044-11.725c5.936-5.779 6.063-15.276.283-21.211-5.779-5.938-15.276-6.063-21.212-.283l-12.05 11.731c-37.247-33.516-83.896-53.193-133.895-56.477v-18.507c0-8.284-6.716-15-15-15s-15 6.716-15 15v18.507c-49.999 3.285-96.648 22.961-133.895 56.479l-12.051-11.733c-5.936-5.779-15.433-5.651-21.211.283-5.779 5.936-5.653 15.432.283 21.211l12.044 11.726c-31.153 36.521-49.489 81.621-52.662 129.527h-18.508c-8.284 0-15 6.716-15 15s6.716 15 15 15h18.508c3.17 47.839 21.463 92.887 52.539 129.377l-8.51 8.285c-5.936 5.779-6.063 15.275-.284 21.212 5.78 5.936 15.275 6.062 21.211.284l8.5-8.275c37.263 33.598 83.963 53.322 134.036 56.61v18.507c0 8.284 6.716 15 15 15s15-6.716 15-15v-18.506c50.074-3.289 96.774-23.012 134.036-56.61l8.5 8.274c5.936 5.779 15.433 5.651 21.212-.284 5.778-5.936 5.651-15.433-.284-21.212l-8.51-8.285c31.076-36.492 49.369-81.539 52.539-129.377h18.507c8.284 0 15-6.716 15-15s-6.716-15-15-15zm-48.581 0h-50.321c-3.052-25.801-13.845-51.13-30.891-72.457l37.075-36.094c25.742 30.817 41.067 68.509 44.137 108.551zm-65.067-130.042-37.097 36.116c-21.899-18.402-48.242-30.008-75.255-33.18v-50.322c41.835 3.18 80.876 19.647 112.352 47.386zm-127.352 200.042c-30.327 0-55-24.673-55-55s24.673-55 55-55 55 24.673 55 55-24.673 55-55 55zm-15-247.428v50.322c-27.012 3.172-53.355 14.776-75.255 33.18l-37.096-36.115c31.476-27.74 70.516-44.207 112.351-47.387zm-133.282 68.878 37.074 36.094c-17.045 21.325-27.838 46.655-30.89 72.456h-50.321c3.07-40.042 18.395-77.734 44.137-108.55zm-44.136 138.55h50.32c3.046 25.742 13.796 51.018 30.772 72.305l-37.077 36.094c-25.667-30.786-40.95-68.423-44.015-108.399zm64.923 129.913 37.094-36.111c21.928 18.477 48.323 30.127 75.4 33.306v50.322c-41.906-3.186-80.998-19.698-112.494-47.517zm142.495 47.516v-50.322c27.077-3.178 53.472-14.828 75.4-33.306l37.095 36.112c-31.495 27.818-70.588 44.331-112.495 47.516zm133.404-69.03-37.077-36.094c16.975-21.288 27.726-46.563 30.771-72.305h50.32c-3.064 39.975-18.347 77.613-44.014 108.399z"/></g></svg>