<?xml version="1.0" encoding="utf-8"?>
<!-- Generator: Adobe Illustrator 23.0.0, SVG Export Plug-In . SVG Version: 6.00 Build 0)  -->
<svg version="1.1" id="图层_1" xmlns="http://www.w3.org/2000/svg" xmlns:xlink="http://www.w3.org/1999/xlink" x="0px" y="0px"
	 viewBox="0 0 200 44" style="enable-background:new 0 0 200 44;" xml:space="preserve">
<style type="text/css">
	.st0{fill:#FFFFFF;}
	.st1{fill:#FFCD15;}
</style>
<g id="XMLID_8518_">
	<g id="XMLID_8645_">
		<path id="XMLID_8519_" class="st0" d="M165.29,37.51v-5.88h-3.59v6.24c0,1.2,2.22,2.18,4.96,2.18h5.43V38.7h-4.1
			C166.5,38.7,165.29,38.17,165.29,37.51z"/>
		<path id="XMLID_9520_" class="st0" d="M184.26,38.7c-1.5,0-2.71-0.53-2.71-1.19v-5.88h-3.59v6.25c0,1.2,2.22,2.18,4.96,2.18h5.44
			V38.7H184.26z"/>
		<path id="XMLID_9525_" class="st0" d="M145.55,31.63L145.55,31.63c-1.32,0-2.51,0.35-3.01,0.89l-7,7.53h3.77l2.37-2.55h7.74
			l2.37,2.55h3.77l-7-7.53C148.06,31.98,146.87,31.63,145.55,31.63z M142.94,36.15l2.35-2.53c0.1-0.11,0.44-0.11,0.53,0l2.35,2.53
			H142.94z"/>
		<path id="XMLID_9529_" class="st0" d="M92.45,31.63H88.4h-1.49h-2.1v8.42h2.1h1.49h4.04c5.32,0,9.62-1.87,9.62-4.2
			S97.76,31.63,92.45,31.63z M92.45,38.49H88.4v-5.28h4.04c3.32,0,6.02,1.18,6.02,2.64S95.77,38.49,92.45,38.49z"/>
		<path id="XMLID_9531_" class="st0" d="M126.24,31.63c-0.95,0-1.83,0.22-2.31,0.58l-4.07,3.08c-0.32,0.24-1.13,0.24-1.45,0
			l-4.07-3.08c-0.48-0.36-1.36-0.58-2.31-0.58c-1.48,0-2.67,0.53-2.67,1.17v7.25h3.59v-5.59c0-0.09,0.28-0.12,0.38-0.05l2.59,1.96
			c0.67,0.5,1.89,0.81,3.22,0.81s2.55-0.31,3.22-0.81l2.59-1.96c0.1-0.08,0.38-0.05,0.38,0.05v5.59h3.59v-7.25
			C128.91,32.16,127.72,31.63,126.24,31.63z"/>
	</g>
	<path id="XMLID_9544_" class="st1" d="M44.19,5.87c-1.01-0.53-2.91-0.51-3.87,0.03l-3.15,1.77c-1.81,1.02-1.75,2.43,0.14,3.42
		l20.51,10.74l0,0c2.27,1.27,3.66,2.85,3.77,4.57c0.26,4.29-7.68,7.92-17.72,8.09c-10.41,0.18-19.07-3.33-19.25-7.75
		c-0.12-2.84,3.31-5.36,8.54-6.79c3.3-0.9,4.08-2.8,1.61-4.1l-2.17-1.14c-0.72-0.38-1.95-0.49-2.98-0.28
		c-10.89,2.2-18.32,6.98-18.05,12.45c0.37,7.46,15.07,13.4,32.53,13.16c17.09-0.23,30.61-6.2,30.53-13.51
		c-0.04-3.28-2.81-6.27-7.39-8.59L44.19,5.87z"/>
	<g id="XMLID_86_">
		<path id="XMLID_87_" class="st0" d="M143.42,25.09l-4.65,0c-1.39,0-2.52,0.5-2.52,1.11l0,0.81c0,0.61,1.13,1.11,2.53,1.1l4.65,0
			c1.39,0,2.52-0.5,2.52-1.11l0-0.81C145.95,25.58,144.82,25.09,143.42,25.09z"/>
		<path id="XMLID_122_" class="st0" d="M158.73,25.09l-4.65,0c-1.39,0-2.52,0.5-2.52,1.11l0,0.81c0,0.61,1.13,1.11,2.53,1.1l4.65,0
			c1.39,0,2.52-0.5,2.52-1.11l0-0.81C161.26,25.58,160.13,25.09,158.73,25.09z"/>
		<path id="XMLID_125_" class="st0" d="M172.3,25.09l-4.65,0c-1.39,0-2.52,0.5-2.52,1.11l0,0.81c0,0.61,1.13,1.11,2.53,1.1l4.65,0
			c1.39,0,2.52-0.5,2.52-1.11l0-0.81C174.83,25.58,173.7,25.09,172.3,25.09z"/>
		<path id="XMLID_210_" class="st0" d="M188.28,26.2c0-0.61-1.13-1.11-2.53-1.1l-4.65,0c-1.39,0-2.52,0.5-2.52,1.11l0,0.81
			c0,0.61,1.13,1.11,2.53,1.1l4.65,0c1.39,0,2.52-0.5,2.52-1.11L188.28,26.2z"/>
		<path id="XMLID_213_" class="st0" d="M143.85,23.03h37.38c2.74,0,4.96-0.97,4.96-2.17v-5.68c0-1.2-2.22-2.17-4.96-2.17h-21.12
			l-0.01-2.53h23.82c0.28,0,0.51-0.1,0.51-0.22V8.17c0-0.12-0.23-0.22-0.51-0.22H160.1l-0.01-1.57c-0.43,0-6.99,0-7.05,0
			c0,0,0,0,0,0l0.02,6.61h-9.21c-2.74,0-4.96,0.97-4.96,2.17v5.68C138.89,22.05,141.11,23.03,143.85,23.03z M145.97,15.91
			c0-0.22,0.42-0.41,0.93-0.41h31.31c0.51,0,0.93,0.18,0.93,0.41l-0.01,4.19c0,0.22-0.42,0.41-0.93,0.41h-31.31
			c-0.51,0-0.93-0.18-0.93-0.41L145.97,15.91z"/>
		<path id="XMLID_214_" class="st0" d="M127.31,18.56l-40.95,0c-0.28,0-0.51,0.1-0.51,0.22v2.07c0,0.12,0.23,0.22,0.51,0.22l38.98,0
			c0.55,0,0.87,0.27,0.56,0.47l-2.46,1.58c-2.55,1.63-6.77,2.61-11.28,2.61h-0.69l-4.89-3.13c-0.26-0.17-0.7-0.27-1.17-0.27h-6.6
			c-0.29,0-0.45,0.14-0.29,0.24l4.94,3.16H85.21c-0.28,0-0.51,0.1-0.51,0.22v1.95c0,0.12,0.23,0.22,0.51,0.22h29.37
			c5.94,0,11.49-1.28,14.84-3.43l2.89-1.85c1.66-1.06,1.44-2.48-0.54-3.44C130.64,18.85,129,18.56,127.31,18.56z"/>
		<path id="XMLID_215_" class="st0" d="M85.88,12.39c3.76-0.48,6.93-1.2,9.47-1.92l29.97,0c0.55,0,0.87,0.27,0.56,0.47l-2.46,1.58
			c-2.55,1.63-6.77,2.61-11.28,2.61h-0.66l-4.93-3.16c-0.26-0.17-0.7-0.27-1.17-0.27h-6.6c-0.29,0-0.45,0.14-0.29,0.24l4.97,3.18
			h-17.1c-0.28,0-0.51,0.1-0.51,0.22v1.95c0,0.12,0.23,0.22,0.51,0.22h28.23c5.94,0,11.49-1.28,14.84-3.43l2.89-1.85
			c1.65-1.06,1.44-2.48-0.54-3.44c-1.14-0.55-2.78-0.84-4.47-0.84h-25.17c0.29-0.14,0.46-0.23,0.5-0.25l-4.87-1.88
			c-0.05,0.03-5.17,2.74-13.6,3.82c-0.27,0.03-0.42,0.15-0.35,0.27l1.44,2.33C85.32,12.35,85.61,12.42,85.88,12.39z"/>
	</g>
</g>
</svg>
