<?xml version="1.0" encoding="utf-8"?>
<!-- Generator: Adobe Illustrator 23.0.0, SVG Export Plug-In . SVG Version: 6.00 Build 0)  -->
<svg version="1.1" id="图层_1" xmlns="http://www.w3.org/2000/svg" xmlns:xlink="http://www.w3.org/1999/xlink" x="0px" y="0px"
	 viewBox="0 0 150 30" style="enable-background:new 0 0 150 30;" xml:space="preserve">
<style type="text/css">
	.st0{fill:#333333;}
	.st1{fill:#F7931E;}
</style>
<g id="XMLID_8518_">
	<g id="XMLID_8645_">
		<path id="XMLID_8519_" class="st0" d="M129.42,26.8v-5.1h-3.05v5.42c0,1.04,1.89,1.89,4.21,1.89h4.61v-1.17h-3.48
			C130.45,27.83,129.42,27.36,129.42,26.8z"/>
		<path id="XMLID_9520_" class="st0" d="M145.53,27.83c-1.27,0-2.3-0.46-2.3-1.03v-5.1h-3.05v5.42c0,1.04,1.88,1.89,4.21,1.89H149
			v-1.17H145.53z"/>
		<path id="XMLID_9525_" class="st0" d="M112.68,21.69L112.68,21.69c-1.12,0-2.13,0.3-2.55,0.77L104.19,29h3.2l2.01-2.21h6.57
			l2.01,2.21h3.2l-5.94-6.54C114.81,22,113.8,21.69,112.68,21.69z M110.46,25.61l1.99-2.19c0.08-0.09,0.37-0.09,0.45,0l1.99,2.19
			H110.46z"/>
		<path id="XMLID_9529_" class="st0" d="M67.62,21.69h-3.43h-1.26h-1.78V29h1.78h1.26h3.43c4.51,0,8.17-1.62,8.17-3.64
			S72.13,21.69,67.62,21.69z M67.62,27.65h-3.43v-4.58h3.43c2.82,0,5.11,1.03,5.11,2.29S70.44,27.65,67.62,27.65z"/>
		<path id="XMLID_9531_" class="st0" d="M96.29,21.69c-0.81,0-1.56,0.19-1.96,0.51l-3.46,2.67c-0.27,0.21-0.96,0.21-1.23,0
			l-3.46-2.67c-0.41-0.31-1.15-0.51-1.96-0.51c-1.25,0-2.27,0.46-2.27,1.02V29h3.05v-4.85c0-0.08,0.23-0.11,0.32-0.04l2.2,1.7
			c0.57,0.44,1.61,0.7,2.73,0.7c1.13,0,2.17-0.27,2.73-0.7l2.2-1.7c0.09-0.07,0.32-0.04,0.32,0.04V29h3.05v-6.29
			C98.56,22.15,97.55,21.69,96.29,21.69z"/>
	</g>
	<path id="XMLID_9544_" class="st1" d="M26.68-0.66c-0.85-0.46-2.47-0.45-3.28,0.03L20.73,0.9C19.19,1.78,19.24,3,20.85,3.86
		l17.4,9.32l0,0c1.93,1.1,3.11,2.47,3.19,3.96c0.22,3.72-6.52,6.87-15.04,7.02c-8.83,0.16-16.18-2.89-16.33-6.72
		c-0.1-2.47,2.81-4.65,7.25-5.89c2.8-0.78,3.46-2.43,1.37-3.56l-1.84-0.99c-0.61-0.33-1.65-0.43-2.52-0.25
		C5.08,8.67-1.22,12.82-0.99,17.57c0.31,6.47,12.79,11.63,27.61,11.42c14.5-0.2,25.98-5.38,25.9-11.73
		c-0.03-2.84-2.39-5.44-6.27-7.45L26.68-0.66z"/>
	<g id="XMLID_86_">
		<path id="XMLID_87_" class="st0" d="M110.87,16.02l-3.95,0c-1.18,0-2.14,0.43-2.14,0.96l0,0.7c0,0.53,0.96,0.96,2.14,0.96l3.94,0
			c1.18,0,2.14-0.43,2.14-0.96l0-0.7C113.02,16.44,112.06,16.02,110.87,16.02z"/>
		<path id="XMLID_122_" class="st0" d="M123.86,16.02l-3.95,0c-1.18,0-2.14,0.43-2.14,0.96l0,0.7c0,0.53,0.96,0.96,2.14,0.96l3.94,0
			c1.18,0,2.14-0.43,2.14-0.96l0-0.7C126.01,16.44,125.05,16.02,123.86,16.02z"/>
		<path id="XMLID_125_" class="st0" d="M135.38,16.02l-3.95,0c-1.18,0-2.14,0.43-2.14,0.96l0,0.7c0,0.53,0.96,0.96,2.14,0.96l3.94,0
			c1.18,0,2.14-0.43,2.14-0.96l0-0.7C137.52,16.44,136.56,16.02,135.38,16.02z"/>
		<path id="XMLID_210_" class="st0" d="M148.93,16.97c0-0.53-0.96-0.96-2.14-0.96l-3.95,0c-1.18,0-2.14,0.43-2.14,0.96l0,0.7
			c0,0.53,0.96,0.96,2.14,0.96l3.94,0c1.18,0,2.14-0.43,2.14-0.96L148.93,16.97z"/>
		<path id="XMLID_213_" class="st0" d="M111.24,14.22h31.72c2.32,0,4.21-0.84,4.21-1.89V7.41c0-1.04-1.88-1.89-4.21-1.89h-17.92
			l-0.01-2.2h20.21c0.24,0,0.43-0.09,0.43-0.19V1.34c0-0.11-0.19-0.19-0.43-0.19h-20.22l0-1.36c-0.36,0-5.93,0-5.99,0c0,0,0,0,0,0
			l0.02,5.73h-7.82c-2.32,0-4.21,0.84-4.21,1.89v4.93C107.03,13.38,108.91,14.22,111.24,14.22z M113.03,8.05
			c0-0.19,0.35-0.35,0.79-0.35h26.56c0.44,0,0.79,0.16,0.79,0.35l-0.01,3.64c0,0.19-0.35,0.35-0.79,0.35h-26.56
			c-0.43,0-0.79-0.16-0.79-0.35L113.03,8.05z"/>
		<path id="XMLID_214_" class="st0" d="M97.2,10.35l-34.75,0c-0.24,0-0.43,0.09-0.43,0.19v1.79c0,0.11,0.19,0.19,0.43,0.19l33.07,0
			c0.46,0,0.74,0.23,0.47,0.4l-2.09,1.37c-2.16,1.42-5.74,2.26-9.57,2.26h-0.59l-4.15-2.72c-0.22-0.15-0.6-0.24-0.99-0.24h-5.6
			c-0.24,0-0.38,0.12-0.25,0.21l4.19,2.74H61.48c-0.24,0-0.43,0.09-0.43,0.19v1.69c0,0.11,0.19,0.19,0.43,0.19H86.4
			c5.04,0,9.75-1.11,12.59-2.98l2.45-1.6c1.4-0.92,1.22-2.15-0.46-2.98C100.03,10.6,98.63,10.35,97.2,10.35z"/>
		<path id="XMLID_215_" class="st0" d="M62.05,4.99c3.19-0.42,5.88-1.04,8.04-1.67l25.43,0c0.46,0,0.74,0.23,0.47,0.4L93.91,5.1
			c-2.16,1.42-5.74,2.26-9.57,2.26h-0.56l-4.18-2.74C79.37,4.47,79,4.39,78.6,4.39h-5.6c-0.24,0-0.39,0.12-0.25,0.21l4.22,2.76
			H62.45c-0.24,0-0.43,0.09-0.43,0.19v1.69c0,0.11,0.19,0.19,0.43,0.19H86.4c5.04,0,9.75-1.11,12.6-2.98l2.45-1.6
			c1.4-0.92,1.22-2.15-0.46-2.98c-0.96-0.48-2.36-0.73-3.79-0.73H75.84c0.24-0.12,0.39-0.2,0.42-0.22l-4.13-1.63
			c-0.04,0.02-4.39,2.38-11.54,3.31c-0.23,0.03-0.36,0.13-0.3,0.23l1.22,2.02C61.58,4.96,61.82,5.02,62.05,4.99z"/>
	</g>
</g>
</svg>
